<svg xmlns="http://www.w3.org/2000/svg" style="display:none"><symbol id="facebook" viewbox="0 0 408.788 408.788"><path d="M353.701 0H55.087C24.665 0 .002 24.662.002 55.085v298.616c0 30.423 24.662 55.085 55.085 55.085h147.275l.251-146.078h-37.951a8.954 8.954 0 0 1-8.954-8.92l-.182-47.087a8.955 8.955 0 0 1 8.955-8.989h37.882v-45.498c0-52.8 32.247-81.55 79.348-81.55h38.65a8.955 8.955 0 0 1 8.955 8.955v39.704a8.955 8.955 0 0 1-8.95 8.955l-23.719.011c-25.615 0-30.575 12.172-30.575 30.035v39.389h56.285c5.363 0 9.524 4.683 8.892 10.009l-5.581 47.087a8.955 8.955 0 0 1-8.892 7.901h-50.453l-.251 146.078h87.631c30.422 0 55.084-24.662 55.084-55.084V55.085C408.786 24.662 384.124 0 353.701 0z"/></symbol><symbol id="instagram" viewbox="0 0 97.395 97.395"><path d="M12.501 0h72.393c6.875 0 12.5 5.09 12.5 12.5v72.395c0 7.41-5.625 12.5-12.5 12.5H12.501C5.624 97.395 0 92.305 0 84.895V12.5C0 5.09 5.624 0 12.501 0zm58.447 10.821a4.395 4.395 0 0 0-4.383 4.385v10.495a4.396 4.396 0 0 0 4.383 4.385h11.008a4.398 4.398 0 0 0 4.385-4.385V15.206a4.397 4.397 0 0 0-4.385-4.385H70.948zm15.439 30.367h-8.572a28.486 28.486 0 0 1 1.25 8.355c0 16.2-13.556 29.332-30.275 29.332-16.718 0-30.272-13.132-30.272-29.332 0-2.904.438-5.708 1.25-8.355h-8.945v41.141a3.884 3.884 0 0 0 3.872 3.872h67.822a3.883 3.883 0 0 0 3.872-3.872V41.188h-.002zM48.789 29.533c-10.802 0-19.56 8.485-19.56 18.953s8.758 18.953 19.56 18.953c10.803 0 19.562-8.485 19.562-18.953s-8.758-18.953-19.562-18.953z"/></symbol><symbol id="vk" viewbox="0 0 512 512"><path d="M440.649 295.361c16.984 16.582 34.909 32.182 50.142 50.436 6.729 8.112 13.099 16.482 17.973 25.896 6.906 13.382.651 28.108-11.348 28.907l-74.59-.034c-19.238 1.596-34.585-6.148-47.489-19.302-10.327-10.519-19.891-21.714-29.821-32.588-4.071-4.444-8.332-8.626-13.422-11.932-10.182-6.609-19.021-4.586-24.84 6.034-5.926 10.802-7.271 22.762-7.853 34.8-.799 17.564-6.108 22.182-23.751 22.986-37.705 1.778-73.489-3.926-106.732-22.947-29.308-16.768-52.034-40.441-71.816-67.24-38.513-52.183-68.008-109.525-94.516-168.473-5.967-13.281-1.603-20.41 13.051-20.663 24.333-.473 48.663-.439 73.025-.034 9.89.145 16.437 5.817 20.256 15.16 13.165 32.371 29.274 63.169 49.494 91.716 5.385 7.6 10.876 15.201 18.694 20.55 8.65 5.923 15.236 3.96 19.305-5.676 2.582-6.11 3.713-12.691 4.295-19.234 1.928-22.513 2.182-44.988-1.199-67.422-2.076-14.001-9.962-23.065-23.933-25.714-7.129-1.351-6.068-4.004-2.616-8.073 5.995-7.018 11.634-11.387 22.875-11.387h84.298c13.271 2.619 16.218 8.581 18.035 21.934l.072 93.637c-.145 5.169 2.582 20.51 11.893 23.931 7.452 2.436 12.364-3.526 16.836-8.251 20.183-21.421 34.588-46.737 47.457-72.951 5.711-11.527 10.622-23.497 15.381-35.458 3.526-8.875 9.059-13.242 19.056-13.049l81.132.072c2.406 0 4.84.035 7.17.434 13.671 2.33 17.418 8.211 13.195 21.561-6.653 20.945-19.598 38.4-32.255 55.935-13.53 18.721-28.001 36.802-41.418 55.634-12.328 17.2-11.349 25.868 3.964 40.805z"/></symbol></svg>